{
  "source": "C:\\Users\\Peter\\Desktop\\stuff\\MIUN\\quantitative_research\\video_compression\\videos\\UVG\\Beauty_1920x1080_120fps_420_8bit_YUV.y4m",
  "output": "C:\\Users\\Peter\\Desktop\\stuff\\MIUN\\quantitative_research\\video_compression\\compressed_videos\\UVG\\vp9\\4\\Beauty_1920x1080_120fps_420_8bit_YUV_vp9.webm",
  "codec": "vp9",
  "ok": "[yuv4mpegpipe @ 00000210b9a95280] Stream #0: not enough frames to estimate rate; consider increasing probesize\nInput #0, yuv4mpegpipe, from 'C:\\Users\\Peter\\Desktop\\stuff\\MIUN\\quantitative_research\\video_compression\\videos\\UVG\\Beauty_1920x1080_120fps_420_8bit_YUV.y4m':\n  Duration: 00:00:05.00, start: 0.000000, bitrate: 2985989 kb/s\n  Stream #0:0: Video: rawvideo (I420 / 0x30323449), yuv420p(progressive), 1920x1080, 120 fps, 120 tbr, 120 tbn\n[out#0/webm @ 00000210b9a99b00] Codec AVOption b:a (set bitrate (in bits/s)) has not been used for any stream. The most likely reason is either wrong type (e.g. a video option with no video streams) or that it is a private option of some decoder which was not actually used for any stream.\nStream mapping:\n  Stream #0:0 -> #0:0 (rawvideo (native) -> vp9 (libvpx-vp9))\nPress [q] to stop, [?] for help\n[libvpx-vp9 @ 00000210b9a9c000] v1.15.2-100-g40561f514\nOutput #0, webm, to 'C:\\Users\\Peter\\Desktop\\stuff\\MIUN\\quantitative_research\\video_compression\\compressed_videos\\UVG\\vp9\\4\\Beauty_1920x1080_120fps_420_8bit_YUV_vp9.webm':\n  Metadata:\n    encoder         : Lavf62.3.100\n  Stream #0:0: Video: vp9, yuv420p(tv, progressive), 1920x1080, q=2-31, 4000 kb/s, 120 fps, 1k tbn\n    Metadata:\n      encoder         : Lavc62.11.100 libvpx-vp9\n    Side data:\n      cpb: bitrate max/min/avg: 0/0/0 buffer size: 4000000 vbv_delay: N/A\nframe=    8 fps=0.0 q=45.0 size=       0KiB time=00:00:00.06 bitrate=  57.7kbits/s speed=0.132x elapsed=0:00:00.50    \nframe=   18 fps= 17 q=45.0 size=       0KiB time=00:00:00.15 bitrate=  25.7kbits/s speed=0.146x elapsed=0:00:01.02    \nframe=   26 fps= 17 q=47.0 size=       0KiB time=00:00:00.21 bitrate=  17.8kbits/s speed=0.14x elapsed=0:00:01.54    \nframe=   34 fps= 17 q=46.0 size=       0KiB time=00:00:00.28 bitrate=  13.6kbits/s speed=0.138x elapsed=0:00:02.05    \nframe=   43 fps= 17 q=45.0 size=       0KiB time=00:00:00.35 bitrate=  10.7kbits/s speed=0.14x elapsed=0:00:02.56    \nframe=   51 fps= 16 q=45.0 size=       0KiB time=00:00:00.42 bitrate=   9.1kbits/s speed=0.137x elapsed=0:00:03.09    \nframe=   60 fps= 17 q=45.0 size=       0KiB time=00:00:00.50 bitrate=   7.7kbits/s speed=0.139x elapsed=0:00:03.60    \nframe=   69 fps= 17 q=43.0 size=       0KiB time=00:00:00.57 bitrate=   6.7kbits/s speed=0.139x elapsed=0:00:04.12    \nframe=   77 fps= 17 q=45.0 size=       0KiB time=00:00:00.64 bitrate=   6.0kbits/s speed=0.138x elapsed=0:00:04.63    \nframe=   86 fps= 17 q=45.0 size=       0KiB time=00:00:00.71 bitrate=   5.4kbits/s speed=0.139x elapsed=0:00:05.15    \nframe=   94 fps= 17 q=44.0 size=       0KiB time=00:00:00.78 bitrate=   4.9kbits/s speed=0.138x elapsed=0:00:05.66    \nframe=  105 fps= 17 q=46.0 size=       0KiB time=00:00:00.87 bitrate=   4.4kbits/s speed=0.142x elapsed=0:00:06.18    \nframe=  114 fps= 17 q=46.0 size=       0KiB time=00:00:00.95 bitrate=   4.1kbits/s speed=0.142x elapsed=0:00:06.69    \nframe=  122 fps= 17 q=46.0 size=       0KiB time=00:00:01.01 bitrate=   3.8kbits/s speed=0.141x elapsed=0:00:07.20    \nframe=  131 fps= 17 q=43.0 size=     256KiB time=00:00:01.09 bitrate=1921.1kbits/s speed=0.141x elapsed=0:00:07.72    \nframe=  141 fps= 17 q=44.0 size=     256KiB time=00:00:01.17 bitrate=1784.8kbits/s speed=0.143x elapsed=0:00:08.23    \nframe=  150 fps= 17 q=42.0 size=     256KiB time=00:00:01.25 bitrate=1677.7kbits/s speed=0.143x elapsed=0:00:08.76    \nframe=  158 fps= 17 q=41.0 size=     256KiB time=00:00:01.31 bitrate=1592.8kbits/s speed=0.142x elapsed=0:00:09.27    \nframe=  166 fps= 17 q=44.0 size=     256KiB time=00:00:01.38 bitrate=1516.0kbits/s speed=0.141x elapsed=0:00:09.79    \nframe=  174 fps= 17 q=25.0 size=     256KiB time=00:00:01.45 bitrate=1446.3kbits/s speed=0.141x elapsed=0:00:10.30    \nframe=  184 fps= 17 q=43.0 size=     256KiB time=00:00:01.53 bitrate=1367.7kbits/s speed=0.142x elapsed=0:00:10.81    \nframe=  192 fps= 17 q=41.0 size=     256KiB time=00:00:01.60 bitrate=1310.7kbits/s speed=0.141x elapsed=0:00:11.34    \nframe=  203 fps= 17 q=44.0 size=     256KiB time=00:00:01.69 bitrate=1239.7kbits/s speed=0.143x elapsed=0:00:11.86    \nframe=  210 fps= 17 q=45.0 size=     256KiB time=00:00:01.75 bitrate=1198.4kbits/s speed=0.141x elapsed=0:00:12.37    \nframe=  219 fps= 17 q=27.0 size=     256KiB time=00:00:01.82 bitrate=1149.1kbits/s speed=0.141x elapsed=0:00:12.90    \nframe=  230 fps= 17 q=46.0 size=     256KiB time=00:00:01.91 bitrate=1094.2kbits/s speed=0.143x elapsed=0:00:13.41    \nframe=  239 fps= 17 q=45.0 size=     256KiB time=00:00:01.99 bitrate=1053.0kbits/s speed=0.143x elapsed=0:00:13.93    \nframe=  248 fps= 17 q=44.0 size=     256KiB time=00:00:02.06 bitrate=1014.8kbits/s speed=0.143x elapsed=0:00:14.45    \nframe=  256 fps= 17 q=44.0 size=     256KiB time=00:00:02.13 bitrate= 983.0kbits/s speed=0.143x elapsed=0:00:14.96    \nframe=  268 fps= 17 q=46.0 size=     768KiB time=00:00:02.23 bitrate=2817.1kbits/s speed=0.144x elapsed=0:00:15.47    \nframe=  277 fps= 17 q=50.0 size=     768KiB time=00:00:02.30 bitrate=2725.5kbits/s speed=0.144x elapsed=0:00:16.00    \nframe=  286 fps= 17 q=49.0 size=     768KiB time=00:00:02.38 bitrate=2639.8kbits/s speed=0.144x elapsed=0:00:16.51    \nframe=  297 fps= 17 q=45.0 size=     768KiB time=00:00:02.47 bitrate=2542.0kbits/s speed=0.145x elapsed=0:00:17.02    \nframe=  305 fps= 17 q=43.0 size=     768KiB time=00:00:02.54 bitrate=2475.3kbits/s speed=0.145x elapsed=0:00:17.54    \nframe=  315 fps= 17 q=43.0 size=     768KiB time=00:00:02.62 bitrate=2396.7kbits/s speed=0.145x elapsed=0:00:18.05    \nframe=  323 fps= 17 q=45.0 size=     768KiB time=00:00:02.69 bitrate=2337.4kbits/s speed=0.145x elapsed=0:00:18.57    \nframe=  332 fps= 17 q=26.0 size=     768KiB time=00:00:02.76 bitrate=2274.0kbits/s speed=0.145x elapsed=0:00:19.09    \nframe=  343 fps= 17 q=45.0 size=     768KiB time=00:00:02.85 bitrate=2201.1kbits/s speed=0.146x elapsed=0:00:19.60    \nframe=  351 fps= 17 q=45.0 size=     768KiB time=00:00:02.92 bitrate=2150.9kbits/s speed=0.145x elapsed=0:00:20.12    \nframe=  361 fps= 17 q=47.0 size=     768KiB time=00:00:03.00 bitrate=2091.3kbits/s speed=0.146x elapsed=0:00:20.64    \nframe=  371 fps= 18 q=47.0 size=     768KiB time=00:00:03.09 bitrate=2035.0kbits/s speed=0.146x elapsed=0:00:21.15    \nframe=  380 fps= 18 q=46.0 size=     768KiB time=00:00:03.16 bitrate=1986.8kbits/s speed=0.146x elapsed=0:00:21.66    \nframe=  390 fps= 18 q=48.0 size=    1280KiB time=00:00:03.25 bitrate=3226.4kbits/s speed=0.147x elapsed=0:00:22.18    \nframe=  399 fps= 18 q=48.0 size=    1280KiB time=00:00:03.32 bitrate=3153.6kbits/s speed=0.146x elapsed=0:00:22.69    \nframe=  410 fps= 18 q=45.0 size=    1280KiB time=00:00:03.41 bitrate=3069.0kbits/s speed=0.147x elapsed=0:00:23.21    \nframe=  418 fps= 18 q=44.0 size=    1280KiB time=00:00:03.48 bitrate=3010.3kbits/s speed=0.147x elapsed=0:00:23.73    \nframe=  429 fps= 18 q=46.0 size=    1280KiB time=00:00:03.57 bitrate=2933.1kbits/s speed=0.147x elapsed=0:00:24.24    \nframe=  437 fps= 18 q=47.0 size=    1280KiB time=00:00:03.64 bitrate=2879.4kbits/s speed=0.147x elapsed=0:00:24.76    \nframe=  445 fps= 18 q=29.0 size=    1280KiB time=00:00:03.70 bitrate=2827.6kbits/s speed=0.147x elapsed=0:00:25.28    \nframe=  455 fps= 18 q=46.0 size=    1280KiB time=00:00:03.79 bitrate=2765.5kbits/s speed=0.147x elapsed=0:00:25.78    \nframe=  464 fps= 18 q=43.0 size=    1280KiB time=00:00:03.86 bitrate=2711.8kbits/s speed=0.147x elapsed=0:00:26.31    \nframe=  474 fps= 18 q=44.0 size=    1280KiB time=00:00:03.95 bitrate=2654.6kbits/s speed=0.147x elapsed=0:00:26.82    \nframe=  483 fps= 18 q=44.0 size=    1280KiB time=00:00:04.02 bitrate=2605.2kbits/s speed=0.147x elapsed=0:00:27.34    \nframe=  492 fps= 18 q=46.0 size=    1280KiB time=00:00:04.10 bitrate=2557.5kbits/s speed=0.147x elapsed=0:00:27.85    \nframe=  500 fps= 18 q=47.0 size=    1280KiB time=00:00:04.16 bitrate=2516.6kbits/s speed=0.147x elapsed=0:00:28.36    \nframe=  510 fps= 18 q=43.0 size=    1280KiB time=00:00:04.25 bitrate=2467.2kbits/s speed=0.147x elapsed=0:00:28.89    \nframe=  519 fps= 18 q=44.0 size=    1792KiB time=00:00:04.32 bitrate=3394.2kbits/s speed=0.147x elapsed=0:00:29.40    \nframe=  527 fps= 18 q=43.0 size=    1792KiB time=00:00:04.39 bitrate=3342.7kbits/s speed=0.147x elapsed=0:00:29.92    \nframe=  537 fps= 18 q=43.0 size=    1792KiB time=00:00:04.47 bitrate=3280.5kbits/s speed=0.147x elapsed=0:00:30.42    \nframe=  545 fps= 18 q=42.0 size=    1792KiB time=00:00:04.54 bitrate=3232.3kbits/s speed=0.147x elapsed=0:00:30.95    \nframe=  556 fps= 18 q=43.0 size=    1792KiB time=00:00:04.63 bitrate=3168.4kbits/s speed=0.147x elapsed=0:00:31.47    \nframe=  563 fps= 18 q=43.0 size=    1792KiB time=00:00:04.69 bitrate=3129.0kbits/s speed=0.147x elapsed=0:00:31.98    \nframe=  572 fps= 18 q=44.0 size=    1792KiB time=00:00:04.76 bitrate=3079.7kbits/s speed=0.147x elapsed=0:00:32.51    \nframe=  576 fps= 17 q=43.0 size=    1792KiB time=00:00:04.80 bitrate=3058.3kbits/s speed=0.145x elapsed=0:00:33.04    \nframe=  576 fps= 17 q=43.0 size=    1792KiB time=00:00:04.80 bitrate=3058.3kbits/s speed=0.143x elapsed=0:00:33.55    \nframe=  576 fps= 17 q=43.0 size=    1792KiB time=00:00:04.80 bitrate=3058.3kbits/s speed=0.141x elapsed=0:00:34.07    \n[out#0/webm @ 00000210b9a99b00] video:2411KiB audio:0KiB subtitle:0KiB other streams:0KiB global headers:0KiB muxing overhead: 0.197154%\nframe=  600 fps= 18 q=44.0 Lsize=    2416KiB time=00:00:05.00 bitrate=3958.4kbits/s speed=0.147x elapsed=0:00:34.08    \n",
  "seconds": 34.158652782440186,
  "probe_out": {}
}